<svg width="64" height="64" viewBox="0 0 64 64" fill="none" xmlns="http://www.w3.org/2000/svg">
  <rect x="6" y="6" width="52" height="52" rx="16" fill="url(#grad)" />
  <path d="M18 24.5C18 22.3 19.8 20.5 22 20.5H42C44.2 20.5 46 22.3 46 24.5V38.5C46 40.7 44.2 42.5 42 42.5H22C19.8 42.5 18 40.7 18 38.5V24.5Z" fill="white" fill-opacity="0.16"/>
  <path d="M22 28H42M22 34H42M26 40H38" stroke="white" stroke-width="3" stroke-linecap="round"/>
  <path d="M36.5 14.5C41.2 14.7 44.9 18.7 44.9 23.5C40.1 23.5 36.1 19.8 35.9 15.1C35.8 14.7 36.1 14.4 36.5 14.5Z" fill="#DCFCE7"/>
  <path d="M42.5 45.5L47 50L55.5 41" stroke="white" stroke-width="3.5" stroke-linecap="round" stroke-linejoin="round"/>
  <defs>
    <linearGradient id="grad" x1="10" y1="8" x2="54" y2="56" gradientUnits="userSpaceOnUse">
      <stop stop-color="#10B981"/>
      <stop offset="1" stop-color="#14B8A6"/>
    </linearGradient>
  </defs>
</svg>